<?xml version="1.0" encoding="utf-8"?>
<!-- Generator: Adobe Illustrator 16.0.0, SVG Export Plug-In . SVG Version: 6.00 Build 0)  -->
<!DOCTYPE svg PUBLIC "-//W3C//DTD SVG 1.1//EN" "http://www.w3.org/Graphics/SVG/1.1/DTD/svg11.dtd">
<svg version="1.1" id="Layer_1" xmlns="http://www.w3.org/2000/svg" xmlns:xlink="http://www.w3.org/1999/xlink" x="0px" y="0px"
	 width="189.5px" height="48.745px" viewBox="0 0 189.5 48.745" enable-background="new 0 0 189.5 48.745" xml:space="preserve">
<g>
	<path fill="#FFFFFF" d="M44.549,42.614c0.511,0,0.926-0.419,0.926-0.936c0-0.515-0.415-0.937-0.926-0.937
		c-0.51,0-0.925,0.422-0.925,0.937c0,0.249,0.096,0.485,0.271,0.661C44.071,42.518,44.302,42.614,44.549,42.614z M44.549,41.403
		c0.072,0,0.143,0.03,0.192,0.08c0.051,0.052,0.079,0.123,0.079,0.195c0,0.151-0.122,0.275-0.271,0.275s-0.27-0.124-0.27-0.275
		C44.279,41.523,44.398,41.403,44.549,41.403z M34.608,14.219c0-0.333,0.268-0.605,0.598-0.605h8.337
		c0.12,0,0.225,0.045,0.319,0.106l2.374-2.5c0.229-0.242,0.607-0.249,0.846-0.017c0.238,0.232,0.245,0.614,0.016,0.855
		L36.332,23.396c-0.118,0.124-0.274,0.186-0.432,0.186c-0.149,0-0.298-0.057-0.414-0.168c-0.238-0.231-0.246-0.615-0.017-0.856
		l7.342-7.732h-7.606C34.875,14.824,34.608,14.554,34.608,14.219z M45.259,18.288v7.446h1.577c0.331,0,0.599,0.271,0.599,0.605
		c0,0.333-0.268,0.605-0.599,0.605h-9.939c-0.33,0-0.598-0.272-0.598-0.605c0-0.334,0.268-0.605,0.598-0.605h7.166v-7.446
		c0-0.334,0.268-0.605,0.598-0.605C44.991,17.683,45.259,17.954,45.259,18.288z M21.37,14.219c0-0.333,0.268-0.605,0.598-0.605
		h8.877V8.457c0-0.334,0.268-0.605,0.598-0.605s0.598,0.271,0.598,0.605v12.191c0,0.335-0.268,0.605-0.598,0.605
		s-0.598-0.271-0.598-0.605v-5.824h-8.877C21.638,14.824,21.37,14.554,21.37,14.219z M42.299,42.614
		c0.511,0,0.927-0.419,0.927-0.936c0-0.515-0.416-0.937-0.927-0.937c-0.509,0-0.923,0.422-0.923,0.937
		C41.375,42.195,41.79,42.614,42.299,42.614z M42.299,41.403c0.153,0,0.273,0.12,0.273,0.275c0,0.151-0.122,0.275-0.273,0.275
		c-0.148,0-0.269-0.124-0.269-0.275S42.15,41.403,42.299,41.403z M47.418,38.466h-2.16V30.44c0-0.334-0.268-0.605-0.598-0.605
		c-0.331,0-0.598,0.271-0.598,0.605v8.025H3.954V15.619c0-0.438,0.353-0.795,0.787-0.795h10.404c0.1,0,0.19-0.031,0.273-0.075
		l11.086,8.794c0.109,0.087,0.239,0.129,0.368,0.129c0.178,0,0.353-0.079,0.471-0.232c0.204-0.263,0.158-0.645-0.102-0.85
		L11.793,10.334c-0.26-0.206-0.636-0.16-0.839,0.104c-0.205,0.264-0.159,0.644,0.101,0.851l2.932,2.325H4.741
		c-1.093,0-1.983,0.899-1.983,2.006v22.847h-2.16C-0.008,38.466,0,39.07,0,39.07v3.964c0,1.024,0.823,1.858,1.834,1.858h44.04
		c1.181,0,2.143-0.975,2.143-2.172v-3.65C48.017,38.736,47.749,38.466,47.418,38.466z M46.82,42.721
		c0,0.529-0.425,0.961-0.946,0.961H1.834c-0.353,0-0.639-0.291-0.639-0.647v-3.357h2.161h41.304h2.16V42.721z M39.848,42.614
		c0.51,0,0.924-0.419,0.924-0.936c0-0.515-0.414-0.937-0.924-0.937c-0.511,0-0.927,0.422-0.927,0.937
		C38.92,42.195,39.337,42.614,39.848,42.614z M39.848,41.403c0.151,0,0.27,0.12,0.27,0.275c0,0.151-0.121,0.275-0.27,0.275
		c-0.15,0-0.272-0.124-0.272-0.275S39.698,41.403,39.848,41.403z M2.273,41.679c0-0.334,0.268-0.605,0.598-0.605h15.173
		c0.33,0,0.598,0.271,0.598,0.605c0,0.335-0.268,0.605-0.598,0.605H2.871C2.541,42.284,2.273,42.014,2.273,41.679z"/>
	<path fill="#FFFFFF" d="M9.503,12.244c-1.733,0-3.142-1.428-3.142-3.184c0-1.755,1.409-3.184,3.142-3.184l0,0
		c0.839,0,1.628,0.332,2.222,0.932c0.595,0.603,0.921,1.402,0.921,2.252C12.646,10.816,11.236,12.244,9.503,12.244z M9.503,7.089
		L9.503,7.089c-1.073,0-1.946,0.885-1.946,1.972c0,1.088,0.873,1.973,1.946,1.973c1.074,0,1.947-0.885,1.947-1.973
		c0-0.525-0.203-1.021-0.571-1.395S10.023,7.089,9.503,7.089z M31.443,8.968c-2.419,0-4.388-1.993-4.388-4.445
		c0-2.45,1.969-4.444,4.388-4.444c2.421,0,4.391,1.994,4.391,4.444C35.833,6.975,33.864,8.968,31.443,8.968z M31.443,1.289
		c-1.76,0-3.192,1.45-3.192,3.233s1.432,3.233,3.192,3.233c1.761,0,3.194-1.45,3.194-3.233S33.204,1.289,31.443,1.289z
		 M50.628,30.786c-2.421,0-4.39-1.994-4.39-4.446c0-2.45,1.969-4.444,4.39-4.444c2.42,0,4.39,1.994,4.39,4.444
		C55.018,28.792,53.048,30.786,50.628,30.786z M50.628,23.106c-1.761,0-3.193,1.451-3.193,3.233c0,1.783,1.432,3.234,3.193,3.234
		c1.761,0,3.193-1.451,3.193-3.234C53.821,24.558,52.389,23.106,50.628,23.106z M48.343,12.836c-1.735,0-3.146-1.428-3.146-3.183
		c0-1.754,1.411-3.184,3.146-3.184c1.732,0,3.142,1.43,3.142,3.184C51.485,11.408,50.075,12.836,48.343,12.836z M48.343,7.681
		c-1.075,0-1.95,0.885-1.95,1.973c0,1.087,0.875,1.971,1.95,1.971c1.073,0,1.946-0.884,1.946-1.971
		C50.289,8.565,49.416,7.681,48.343,7.681z M31.443,32.472c-3.337,0-6.051-2.75-6.051-6.132c0-3.38,2.714-6.13,6.051-6.13
		s6.052,2.75,6.052,6.13C37.495,29.722,34.78,32.472,31.443,32.472z M31.443,21.421c-2.677,0-4.855,2.207-4.855,4.919
		c0,2.713,2.178,4.921,4.855,4.921c2.678,0,4.856-2.208,4.856-4.921C36.299,23.628,34.121,21.421,31.443,21.421z"/>
	<path fill="#FFFFFF" d="M66.464,43.893V29.094h3.778v11.48h4.383v3.319H66.464z M84.289,43.893v-1.201H84.25
		c-0.28,0.534-0.745,0.94-1.396,1.22c-0.56,0.241-1.175,0.361-1.845,0.361c-1.673,0-3.03-0.576-4.071-1.728
		c-1.002-1.119-1.503-2.521-1.503-4.207c0-1.66,0.511-3.052,1.533-4.178c1.061-1.165,2.408-1.748,4.042-1.748
		c0.664,0,1.275,0.124,1.835,0.371c0.625,0.273,1.093,0.67,1.406,1.191h0.039v-1.181h3.319v11.099H84.289z M83.41,31.622
		l-4.939-2.167l1.025-2.333l4.832,2.558L83.41,31.622z M83.498,36.317c-0.527-0.533-1.194-0.8-2.001-0.8
		c-0.8,0-1.461,0.28-1.981,0.839c-0.507,0.541-0.761,1.214-0.761,2.021c0,0.774,0.264,1.432,0.791,1.972
		c0.54,0.546,1.197,0.82,1.972,0.82c0.801,0,1.464-0.27,1.992-0.81c0.521-0.54,0.781-1.214,0.781-2.021
		C84.289,37.525,84.025,36.851,83.498,36.317z M103.734,43.893v-5.896c0-0.762-0.091-1.324-0.273-1.689
		c-0.26-0.514-0.735-0.771-1.425-0.771c-0.683,0-1.175,0.225-1.474,0.673c-0.247,0.371-0.371,0.911-0.371,1.621v6.062h-3.319V37.86
		c0-0.69-0.101-1.22-0.302-1.591c-0.267-0.488-0.719-0.732-1.357-0.732c-0.703,0-1.208,0.248-1.513,0.742
		c-0.241,0.391-0.361,0.963-0.361,1.718v5.896h-3.319V32.793h3.094v1.181h0.049c0.299-0.54,0.729-0.94,1.289-1.201
		c0.501-0.241,1.09-0.361,1.767-0.361c1.418,0,2.486,0.661,3.202,1.982c0.833-1.321,2.004-1.982,3.514-1.982
		c1.217,0,2.19,0.375,2.919,1.123c0.56,0.573,0.917,1.237,1.074,1.992c0.059,0.313,0.098,0.68,0.117,1.103
		c0.006,0.163,0.01,0.358,0.01,0.585v6.677H103.734z M121.852,43.893h-3.173l-3.982-11.099h3.436l2.118,6.921h0.039l2.128-6.921
		h3.437L121.852,43.893z M127.387,31.622v-2.528h3.319v2.528H127.387z M127.387,43.893V32.793h3.319v11.099H127.387z
		 M144.099,39.354h-8.317c0.208,1.399,1.074,2.099,2.597,2.099c0.794,0,1.467-0.345,2.021-1.035h3.397
		c-0.495,1.152-1.204,2.069-2.128,2.753c-0.983,0.722-2.079,1.083-3.29,1.083c-1.621,0-3.003-0.576-4.149-1.728
		c-1.152-1.146-1.728-2.528-1.728-4.148c0-1.627,0.563-3.023,1.688-4.188c1.139-1.185,2.515-1.777,4.129-1.777
		c1.679,0,3.081,0.592,4.207,1.777c1.1,1.165,1.65,2.593,1.65,4.285C144.177,38.794,144.151,39.086,144.099,39.354z M139.296,31.095
		l-0.917-1.162l-0.918,1.162h-3.241l3.124-3.319h2.157l2.997,3.319H139.296z M140.858,37.118c-0.273-1.269-1.113-1.904-2.519-1.904
		s-2.245,0.635-2.519,1.904H140.858z M136.748,48.686v-3.016h3.182v3.016H136.748z M157.229,39.675
		c-0.319,1.354-1.019,2.457-2.099,3.31c-1.074,0.846-2.314,1.269-3.719,1.269c-1.66,0-3.062-0.576-4.208-1.728
		c-1.152-1.146-1.728-2.548-1.728-4.207c0-1.646,0.563-3.04,1.689-4.178c1.132-1.152,2.522-1.728,4.168-1.728
		c1.438,0,2.701,0.426,3.788,1.279c1.106,0.859,1.802,1.988,2.089,3.388h-3.358c-0.482-1.042-1.308-1.562-2.479-1.562
		c-0.775,0-1.399,0.283-1.875,0.849c-0.456,0.534-0.683,1.191-0.683,1.972c0,0.8,0.237,1.464,0.712,1.991
		c0.495,0.546,1.136,0.82,1.923,0.82c1.086,0,1.887-0.491,2.401-1.474H157.229z M172.125,43.316
		c-0.853,0.638-1.887,0.957-3.104,0.957c-1.21,0-2.223-0.309-3.036-0.928c-0.865-0.657-1.36-1.575-1.483-2.752h3.299
		c0.098,0.683,0.517,1.025,1.259,1.025c0.286,0,0.543-0.072,0.771-0.215c0.26-0.163,0.391-0.381,0.391-0.654
		c0-0.345-0.176-0.628-0.527-0.85l-0.488-0.234l-1.923-0.693c-0.774-0.28-1.379-0.628-1.815-1.044
		c-0.553-0.521-0.83-1.139-0.83-1.855c0-1.1,0.449-1.998,1.347-2.694c0.827-0.645,1.813-0.967,2.958-0.967
		c1.165,0,2.125,0.29,2.88,0.869c0.813,0.618,1.272,1.497,1.376,2.636h-3.26c-0.02-0.56-0.364-0.84-1.035-0.84
		c-0.631,0-0.947,0.248-0.947,0.742c0,0.371,0.293,0.673,0.878,0.908c0.195,0.084,0.491,0.186,0.888,0.303
		c0.033,0.006,0.075,0.016,0.127,0.029l0.898,0.283c0.397,0.13,0.739,0.267,1.025,0.41c0.351,0.176,0.647,0.377,0.888,0.605
		c0.585,0.54,0.878,1.252,0.878,2.138C173.54,41.673,173.068,42.614,172.125,43.316z M184.903,42.555
		c-1.139,1.12-2.561,1.679-4.266,1.679c-1.705,0-3.124-0.56-4.256-1.679c-1.146-1.119-1.718-2.525-1.718-4.217
		c0-1.699,0.573-3.107,1.718-4.227c1.132-1.119,2.551-1.679,4.256-1.679c1.705,0,3.127,0.56,4.266,1.679
		c1.146,1.12,1.718,2.528,1.718,4.227C186.621,40.03,186.048,41.436,184.903,42.555z M181.584,31.095l-0.927-1.162l-0.918,1.162
		h-3.241l3.124-3.319h2.158l2.997,3.319H181.584z M182.55,36.376c-0.514-0.56-1.152-0.839-1.913-0.839
		c-0.755,0-1.39,0.28-1.904,0.839c-0.501,0.541-0.751,1.194-0.751,1.962c0,0.761,0.25,1.415,0.751,1.962
		c0.514,0.553,1.148,0.83,1.904,0.83c0.761,0,1.399-0.276,1.913-0.83c0.501-0.547,0.751-1.201,0.751-1.962
		C183.302,37.57,183.051,36.917,182.55,36.376z M184.122,29.484l-0.947-1.962l4.803-2.577l1.054,2.362L184.122,29.484z"/>
	<path fill="#FFFFFF" d="M70.682,15.232l-1.61,1.708v4.432h-2.47V7.159h2.47v6.667l1.367-1.688l4.158-4.979h2.987l-5.281,6.296
		l5.584,7.917h-2.929L70.682,15.232z M81.313,11.962c0.774-0.898,1.754-1.347,2.938-1.347c2.251,0,3.394,1.285,3.426,3.856v6.901
		h-2.372v-6.813c0-0.729-0.158-1.245-0.474-1.547c-0.315-0.303-0.779-0.454-1.391-0.454c-0.95,0-1.659,0.423-2.128,1.269v7.546
		h-2.372V6.378h2.372V11.962z M89.63,15.993c0-1.035,0.205-1.967,0.615-2.796c0.41-0.83,0.986-1.468,1.728-1.914
		c0.742-0.445,1.595-0.668,2.558-0.668c1.425,0,2.582,0.458,3.471,1.376c0.888,0.917,1.368,2.134,1.439,3.651l0.01,0.556
		c0,1.042-0.2,1.972-0.6,2.792c-0.4,0.82-0.973,1.455-1.718,1.903c-0.745,0.449-1.605,0.674-2.582,0.674
		c-1.49,0-2.683-0.496-3.578-1.489c-0.895-0.992-1.342-2.315-1.342-3.968V15.993z M97.85,9.077v0.107l-1.904,0.005l-1.464-1.523
		l-1.454,1.523l-1.884-0.005V9.058l2.646-2.689h1.396L97.85,9.077z M92.002,16.198c0,1.087,0.225,1.938,0.674,2.553
		c0.449,0.615,1.074,0.922,1.874,0.922c0.801,0,1.424-0.312,1.87-0.937c0.446-0.625,0.668-1.539,0.668-2.743
		c0-1.067-0.229-1.913-0.688-2.538c-0.459-0.625-1.082-0.937-1.87-0.937c-0.774,0-1.389,0.308-1.845,0.922
		C92.23,14.056,92.002,14.975,92.002,16.198z M103.657,10.81l0.068,1.22c0.781-0.944,1.806-1.416,3.075-1.416
		c2.199,0,3.319,1.259,3.358,3.778v6.979h-2.372v-6.843c0-0.67-0.145-1.167-0.435-1.489s-0.763-0.483-1.42-0.483
		c-0.957,0-1.669,0.433-2.138,1.298v7.517h-2.372V10.81H103.657z M112.16,16.013c0-1.64,0.386-2.949,1.157-3.929
		c0.771-0.979,1.794-1.469,3.07-1.469c1.204,0,2.151,0.419,2.841,1.259l0.107-1.064h2.138v10.24c0,1.386-0.431,2.479-1.293,3.28
		c-0.862,0.8-2.026,1.201-3.49,1.201c-0.775,0-1.531-0.161-2.27-0.483c-0.738-0.322-1.3-0.744-1.684-1.264l1.123-1.425
		c0.729,0.866,1.627,1.298,2.694,1.298c0.787,0,1.409-0.213,1.864-0.639c0.456-0.426,0.684-1.053,0.684-1.879v-0.712
		c-0.684,0.761-1.595,1.142-2.733,1.142c-1.237,0-2.247-0.491-3.031-1.474C112.552,19.111,112.16,17.75,112.16,16.013z
		 M114.522,16.218c0,1.061,0.216,1.896,0.649,2.504c0.433,0.609,1.033,0.913,1.801,0.913c0.957,0,1.666-0.41,2.128-1.23v-4.646
		c-0.449-0.8-1.152-1.201-2.109-1.201c-0.781,0-1.388,0.309-1.82,0.927C114.738,14.103,114.522,15.014,114.522,16.218z
		 M128.472,16.013c0-1.64,0.386-2.949,1.157-3.929c0.771-0.979,1.794-1.469,3.07-1.469c1.204,0,2.151,0.419,2.841,1.259l0.107-1.064
		h2.138v10.24c0,1.386-0.431,2.479-1.293,3.28c-0.862,0.8-2.026,1.201-3.49,1.201c-0.775,0-1.531-0.161-2.27-0.483
		c-0.738-0.322-1.3-0.744-1.684-1.264l1.123-1.425c0.729,0.866,1.627,1.298,2.694,1.298c0.787,0,1.409-0.213,1.864-0.639
		c0.456-0.426,0.684-1.053,0.684-1.879v-0.712c-0.684,0.761-1.595,1.142-2.733,1.142c-1.237,0-2.247-0.491-3.031-1.474
		C128.864,19.111,128.472,17.75,128.472,16.013z M130.834,16.218c0,1.061,0.216,1.896,0.649,2.504
		c0.433,0.609,1.033,0.913,1.801,0.913c0.957,0,1.666-0.41,2.128-1.23v-4.646c-0.449-0.8-1.152-1.201-2.109-1.201
		c-0.781,0-1.388,0.309-1.82,0.927C131.05,14.103,130.834,15.014,130.834,16.218z M140.225,8.067c0-0.364,0.115-0.667,0.347-0.908
		c0.231-0.241,0.561-0.361,0.991-0.361s0.761,0.121,0.996,0.361s0.352,0.543,0.352,0.908c0,0.358-0.117,0.656-0.352,0.893
		c-0.234,0.238-0.566,0.356-0.996,0.356s-0.76-0.119-0.991-0.356C140.34,8.723,140.225,8.425,140.225,8.067z M142.743,21.372h-2.372
		V10.81h2.372V21.372z M151.636,21.372c-0.104-0.202-0.195-0.53-0.273-0.986c-0.755,0.788-1.679,1.181-2.772,1.181
		c-1.061,0-1.926-0.303-2.597-0.908c-0.67-0.605-1.005-1.354-1.005-2.246c0-1.125,0.418-1.99,1.254-2.591
		c0.836-0.602,2.032-0.903,3.587-0.903h1.455v-0.693c0-0.547-0.153-0.984-0.459-1.313c-0.306-0.329-0.771-0.493-1.396-0.493
		c-0.541,0-0.983,0.135-1.328,0.405c-0.345,0.27-0.518,0.613-0.518,1.03h-2.372c0-0.579,0.192-1.121,0.576-1.625
		c0.384-0.504,0.906-0.899,1.566-1.186c0.661-0.286,1.397-0.429,2.211-0.429c1.236,0,2.222,0.311,2.958,0.932
		s1.113,1.495,1.132,2.621v4.764c0,0.95,0.133,1.708,0.4,2.274v0.166H151.636z M149.03,19.664c0.469,0,0.909-0.114,1.323-0.341
		c0.413-0.228,0.724-0.534,0.932-0.918v-1.991h-1.279c-0.878,0-1.539,0.153-1.981,0.459c-0.443,0.306-0.664,0.739-0.664,1.298
		c0,0.456,0.151,0.818,0.454,1.088S148.522,19.664,149.03,19.664z M158.342,10.81l0.068,1.22c0.781-0.944,1.806-1.416,3.075-1.416
		c2.199,0,3.319,1.259,3.358,3.778v6.979h-2.372v-6.843c0-0.67-0.145-1.167-0.435-1.489s-0.763-0.483-1.42-0.483
		c-0.957,0-1.669,0.433-2.138,1.298v7.517h-2.372V10.81H158.342z"/>
</g>
</svg>
